<mxfile host="app.diagrams.net" modified="2024-04-10T09:00:10.163Z" agent="Mozilla/5.0 (Windows NT 10.0; Win64; x64) AppleWebKit/537.36 (KHTML, like Gecko) Chrome/121.0.0.0 Safari/537.36 OPR/107.0.0.0" etag="RyZHTdaGwt-C4uN8sKaz" version="24.2.1" type="github" pages="2">
  <diagram name="Page-1" id="kr8RQMowBn344ddE0N8y">
    <mxGraphModel dx="1009" dy="542" grid="1" gridSize="10" guides="1" tooltips="1" connect="1" arrows="1" fold="1" page="1" pageScale="1" pageWidth="2000" pageHeight="1000" math="0" shadow="0">
      <root>
        <mxCell id="0" />
        <mxCell id="1" parent="0" />
        <mxCell id="a_WTQ3rnNguVCfui24H0-111" style="edgeStyle=orthogonalEdgeStyle;rounded=0;orthogonalLoop=1;jettySize=auto;html=1;exitX=1;exitY=1;exitDx=0;exitDy=0;exitPerimeter=0;entryX=0;entryY=0;entryDx=0;entryDy=0;" parent="1" source="a_WTQ3rnNguVCfui24H0-84" target="a_WTQ3rnNguVCfui24H0-96" edge="1">
          <mxGeometry relative="1" as="geometry" />
        </mxCell>
        <mxCell id="a_WTQ3rnNguVCfui24H0-84" value="Guest" style="shape=umlActor;verticalLabelPosition=bottom;verticalAlign=top;html=1;outlineConnect=0;" parent="1" vertex="1">
          <mxGeometry x="32" y="10" width="30" height="60" as="geometry" />
        </mxCell>
        <mxCell id="a_WTQ3rnNguVCfui24H0-114" style="edgeStyle=orthogonalEdgeStyle;rounded=0;orthogonalLoop=1;jettySize=auto;html=1;exitX=0.5;exitY=0.5;exitDx=0;exitDy=0;exitPerimeter=0;" parent="1" source="a_WTQ3rnNguVCfui24H0-87" target="a_WTQ3rnNguVCfui24H0-96" edge="1">
          <mxGeometry relative="1" as="geometry" />
        </mxCell>
        <mxCell id="a_WTQ3rnNguVCfui24H0-125" style="edgeStyle=orthogonalEdgeStyle;rounded=0;orthogonalLoop=1;jettySize=auto;html=1;exitX=0.5;exitY=0.5;exitDx=0;exitDy=0;exitPerimeter=0;" parent="1" source="a_WTQ3rnNguVCfui24H0-87" target="a_WTQ3rnNguVCfui24H0-107" edge="1">
          <mxGeometry relative="1" as="geometry" />
        </mxCell>
        <mxCell id="a_WTQ3rnNguVCfui24H0-87" value="Receptionist&lt;div&gt;&lt;br&gt;&lt;/div&gt;" style="shape=umlActor;verticalLabelPosition=bottom;verticalAlign=top;html=1;outlineConnect=0;" parent="1" vertex="1">
          <mxGeometry x="32" y="300" width="30" height="60" as="geometry" />
        </mxCell>
        <mxCell id="a_WTQ3rnNguVCfui24H0-116" style="edgeStyle=orthogonalEdgeStyle;rounded=0;orthogonalLoop=1;jettySize=auto;html=1;exitX=0.5;exitY=0.5;exitDx=0;exitDy=0;exitPerimeter=0;entryX=0;entryY=0.5;entryDx=0;entryDy=0;" parent="1" source="a_WTQ3rnNguVCfui24H0-88" target="a_WTQ3rnNguVCfui24H0-105" edge="1">
          <mxGeometry relative="1" as="geometry" />
        </mxCell>
        <mxCell id="a_WTQ3rnNguVCfui24H0-120" style="edgeStyle=orthogonalEdgeStyle;rounded=0;orthogonalLoop=1;jettySize=auto;html=1;exitX=0.5;exitY=0.5;exitDx=0;exitDy=0;exitPerimeter=0;entryX=0;entryY=0.5;entryDx=0;entryDy=0;" parent="1" source="a_WTQ3rnNguVCfui24H0-88" target="a_WTQ3rnNguVCfui24H0-104" edge="1">
          <mxGeometry relative="1" as="geometry" />
        </mxCell>
        <mxCell id="a_WTQ3rnNguVCfui24H0-126" style="edgeStyle=orthogonalEdgeStyle;rounded=0;orthogonalLoop=1;jettySize=auto;html=1;exitX=0.5;exitY=0.5;exitDx=0;exitDy=0;exitPerimeter=0;" parent="1" source="a_WTQ3rnNguVCfui24H0-88" target="a_WTQ3rnNguVCfui24H0-102" edge="1">
          <mxGeometry relative="1" as="geometry" />
        </mxCell>
        <mxCell id="a_WTQ3rnNguVCfui24H0-88" value="Manager" style="shape=umlActor;verticalLabelPosition=bottom;verticalAlign=top;html=1;outlineConnect=0;" parent="1" vertex="1">
          <mxGeometry x="32" y="550" width="30" height="60" as="geometry" />
        </mxCell>
        <mxCell id="a_WTQ3rnNguVCfui24H0-121" style="edgeStyle=orthogonalEdgeStyle;rounded=0;orthogonalLoop=1;jettySize=auto;html=1;exitX=0.5;exitY=0.5;exitDx=0;exitDy=0;exitPerimeter=0;" parent="1" source="a_WTQ3rnNguVCfui24H0-89" target="a_WTQ3rnNguVCfui24H0-108" edge="1">
          <mxGeometry relative="1" as="geometry" />
        </mxCell>
        <mxCell id="a_WTQ3rnNguVCfui24H0-127" style="edgeStyle=orthogonalEdgeStyle;rounded=0;orthogonalLoop=1;jettySize=auto;html=1;exitX=0.5;exitY=0.5;exitDx=0;exitDy=0;exitPerimeter=0;entryX=1;entryY=1;entryDx=0;entryDy=0;" parent="1" source="a_WTQ3rnNguVCfui24H0-89" target="a_WTQ3rnNguVCfui24H0-104" edge="1">
          <mxGeometry relative="1" as="geometry" />
        </mxCell>
        <mxCell id="a_WTQ3rnNguVCfui24H0-89" value="Housekeeping&lt;div&gt;Staff&lt;/div&gt;" style="shape=umlActor;verticalLabelPosition=bottom;verticalAlign=top;html=1;outlineConnect=0;" parent="1" vertex="1">
          <mxGeometry x="32" y="870" width="30" height="60" as="geometry" />
        </mxCell>
        <mxCell id="a_WTQ3rnNguVCfui24H0-115" style="edgeStyle=orthogonalEdgeStyle;rounded=0;orthogonalLoop=1;jettySize=auto;html=1;exitX=1;exitY=0.5;exitDx=0;exitDy=0;" parent="1" source="a_WTQ3rnNguVCfui24H0-96" target="a_WTQ3rnNguVCfui24H0-102" edge="1">
          <mxGeometry relative="1" as="geometry" />
        </mxCell>
        <mxCell id="a_WTQ3rnNguVCfui24H0-118" style="edgeStyle=orthogonalEdgeStyle;rounded=0;orthogonalLoop=1;jettySize=auto;html=1;exitX=1;exitY=0.5;exitDx=0;exitDy=0;" parent="1" source="a_WTQ3rnNguVCfui24H0-96" target="a_WTQ3rnNguVCfui24H0-99" edge="1">
          <mxGeometry relative="1" as="geometry" />
        </mxCell>
        <mxCell id="a_WTQ3rnNguVCfui24H0-96" value="MAKE RESERVATION" style="ellipse;whiteSpace=wrap;html=1;" parent="1" vertex="1">
          <mxGeometry x="120" y="160" width="120" height="80" as="geometry" />
        </mxCell>
        <mxCell id="a_WTQ3rnNguVCfui24H0-123" style="edgeStyle=orthogonalEdgeStyle;rounded=0;orthogonalLoop=1;jettySize=auto;html=1;exitX=1;exitY=0.5;exitDx=0;exitDy=0;" parent="1" source="a_WTQ3rnNguVCfui24H0-99" target="a_WTQ3rnNguVCfui24H0-101" edge="1">
          <mxGeometry relative="1" as="geometry" />
        </mxCell>
        <mxCell id="a_WTQ3rnNguVCfui24H0-99" value="CHECK-IN" style="ellipse;whiteSpace=wrap;html=1;" parent="1" vertex="1">
          <mxGeometry x="400" y="180" width="120" height="80" as="geometry" />
        </mxCell>
        <mxCell id="a_WTQ3rnNguVCfui24H0-124" style="edgeStyle=orthogonalEdgeStyle;rounded=0;orthogonalLoop=1;jettySize=auto;html=1;exitX=1;exitY=0.5;exitDx=0;exitDy=0;" parent="1" source="a_WTQ3rnNguVCfui24H0-101" target="a_WTQ3rnNguVCfui24H0-109" edge="1">
          <mxGeometry relative="1" as="geometry" />
        </mxCell>
        <mxCell id="a_WTQ3rnNguVCfui24H0-101" value="CHECK OUT" style="ellipse;whiteSpace=wrap;html=1;" parent="1" vertex="1">
          <mxGeometry x="580" y="180" width="120" height="80" as="geometry" />
        </mxCell>
        <mxCell id="a_WTQ3rnNguVCfui24H0-119" style="edgeStyle=orthogonalEdgeStyle;rounded=0;orthogonalLoop=1;jettySize=auto;html=1;exitX=1;exitY=0.5;exitDx=0;exitDy=0;" parent="1" source="a_WTQ3rnNguVCfui24H0-102" target="a_WTQ3rnNguVCfui24H0-104" edge="1">
          <mxGeometry relative="1" as="geometry" />
        </mxCell>
        <mxCell id="a_WTQ3rnNguVCfui24H0-102" value="MANAGE RESERVATION" style="ellipse;whiteSpace=wrap;html=1;" parent="1" vertex="1">
          <mxGeometry x="110" y="370" width="120" height="80" as="geometry" />
        </mxCell>
        <mxCell id="a_WTQ3rnNguVCfui24H0-103" value="CANCEL RESERVATION" style="ellipse;whiteSpace=wrap;html=1;" parent="1" vertex="1">
          <mxGeometry x="270" y="40" width="120" height="80" as="geometry" />
        </mxCell>
        <mxCell id="a_WTQ3rnNguVCfui24H0-130" style="edgeStyle=orthogonalEdgeStyle;rounded=0;orthogonalLoop=1;jettySize=auto;html=1;exitX=0;exitY=0;exitDx=0;exitDy=0;entryX=1;entryY=0;entryDx=0;entryDy=0;" parent="1" source="a_WTQ3rnNguVCfui24H0-104" target="a_WTQ3rnNguVCfui24H0-107" edge="1">
          <mxGeometry relative="1" as="geometry" />
        </mxCell>
        <mxCell id="a_WTQ3rnNguVCfui24H0-104" value="MANAGE ROOM" style="ellipse;whiteSpace=wrap;html=1;" parent="1" vertex="1">
          <mxGeometry x="680" y="410" width="120" height="80" as="geometry" />
        </mxCell>
        <mxCell id="a_WTQ3rnNguVCfui24H0-117" style="edgeStyle=orthogonalEdgeStyle;rounded=0;orthogonalLoop=1;jettySize=auto;html=1;exitX=1;exitY=0.5;exitDx=0;exitDy=0;entryX=0;entryY=0.5;entryDx=0;entryDy=0;" parent="1" source="a_WTQ3rnNguVCfui24H0-105" target="a_WTQ3rnNguVCfui24H0-110" edge="1">
          <mxGeometry relative="1" as="geometry" />
        </mxCell>
        <mxCell id="a_WTQ3rnNguVCfui24H0-105" value="MANAGE STAFF&lt;div&gt;&lt;br&gt;&lt;/div&gt;" style="ellipse;whiteSpace=wrap;html=1;" parent="1" vertex="1">
          <mxGeometry x="210" y="560" width="120" height="80" as="geometry" />
        </mxCell>
        <mxCell id="a_WTQ3rnNguVCfui24H0-106" value="MANAGE INVENTORY" style="ellipse;whiteSpace=wrap;html=1;" parent="1" vertex="1">
          <mxGeometry x="550" y="710" width="120" height="80" as="geometry" />
        </mxCell>
        <mxCell id="a_WTQ3rnNguVCfui24H0-107" value="MANAGE BILLING" style="ellipse;whiteSpace=wrap;html=1;" parent="1" vertex="1">
          <mxGeometry x="490" y="300" width="120" height="80" as="geometry" />
        </mxCell>
        <mxCell id="a_WTQ3rnNguVCfui24H0-122" style="edgeStyle=orthogonalEdgeStyle;rounded=0;orthogonalLoop=1;jettySize=auto;html=1;exitX=1;exitY=0.5;exitDx=0;exitDy=0;entryX=0;entryY=0.5;entryDx=0;entryDy=0;" parent="1" source="a_WTQ3rnNguVCfui24H0-108" target="a_WTQ3rnNguVCfui24H0-106" edge="1">
          <mxGeometry relative="1" as="geometry" />
        </mxCell>
        <mxCell id="a_WTQ3rnNguVCfui24H0-108" value="CLEAN ROOM" style="ellipse;whiteSpace=wrap;html=1;" parent="1" vertex="1">
          <mxGeometry x="320" y="710" width="120" height="80" as="geometry" />
        </mxCell>
        <mxCell id="a_WTQ3rnNguVCfui24H0-109" value="REPORT ISSUE" style="ellipse;whiteSpace=wrap;html=1;" parent="1" vertex="1">
          <mxGeometry x="660" y="80" width="120" height="80" as="geometry" />
        </mxCell>
        <mxCell id="a_WTQ3rnNguVCfui24H0-110" value="VIEW REPORTS" style="ellipse;whiteSpace=wrap;html=1;" parent="1" vertex="1">
          <mxGeometry x="450" y="480" width="120" height="80" as="geometry" />
        </mxCell>
        <mxCell id="a_WTQ3rnNguVCfui24H0-112" style="edgeStyle=orthogonalEdgeStyle;rounded=0;orthogonalLoop=1;jettySize=auto;html=1;exitX=1;exitY=0;exitDx=0;exitDy=0;entryX=0.25;entryY=0.919;entryDx=0;entryDy=0;entryPerimeter=0;" parent="1" source="a_WTQ3rnNguVCfui24H0-96" target="a_WTQ3rnNguVCfui24H0-103" edge="1">
          <mxGeometry relative="1" as="geometry" />
        </mxCell>
      </root>
    </mxGraphModel>
  </diagram>
  <diagram id="4lf5OoRPBS7jItL3L0gp" name="Page-2">
    <mxGraphModel dx="1009" dy="542" grid="1" gridSize="10" guides="1" tooltips="1" connect="1" arrows="1" fold="1" page="1" pageScale="1" pageWidth="1169" pageHeight="827" math="0" shadow="0">
      <root>
        <mxCell id="0" />
        <mxCell id="1" parent="0" />
        <mxCell id="cJaIcAbAFUQ9YkOtkiE8-1" style="edgeStyle=orthogonalEdgeStyle;rounded=0;orthogonalLoop=1;jettySize=auto;html=1;exitX=0.5;exitY=0;exitDx=0;exitDy=0;startArrow=classic;startFill=1;" edge="1" parent="1" source="cJaIcAbAFUQ9YkOtkiE8-11" target="cJaIcAbAFUQ9YkOtkiE8-12">
          <mxGeometry relative="1" as="geometry">
            <mxPoint x="584.7647058823529" y="240" as="targetPoint" />
          </mxGeometry>
        </mxCell>
        <mxCell id="cJaIcAbAFUQ9YkOtkiE8-2" style="edgeStyle=orthogonalEdgeStyle;rounded=0;orthogonalLoop=1;jettySize=auto;html=1;exitX=1;exitY=0.5;exitDx=0;exitDy=0;startArrow=classic;startFill=1;" edge="1" parent="1" source="cJaIcAbAFUQ9YkOtkiE8-11" target="cJaIcAbAFUQ9YkOtkiE8-13">
          <mxGeometry relative="1" as="geometry">
            <mxPoint x="760" y="413.7647058823529" as="targetPoint" />
          </mxGeometry>
        </mxCell>
        <mxCell id="cJaIcAbAFUQ9YkOtkiE8-3" style="edgeStyle=orthogonalEdgeStyle;rounded=0;orthogonalLoop=1;jettySize=auto;html=1;exitX=0.5;exitY=1;exitDx=0;exitDy=0;" edge="1" parent="1" source="cJaIcAbAFUQ9YkOtkiE8-11" target="cJaIcAbAFUQ9YkOtkiE8-14">
          <mxGeometry relative="1" as="geometry">
            <mxPoint x="584.7647058823529" y="530" as="targetPoint" />
          </mxGeometry>
        </mxCell>
        <mxCell id="cJaIcAbAFUQ9YkOtkiE8-4" value="" style="edgeStyle=orthogonalEdgeStyle;rounded=0;orthogonalLoop=1;jettySize=auto;html=1;" edge="1" parent="1" source="cJaIcAbAFUQ9YkOtkiE8-11" target="cJaIcAbAFUQ9YkOtkiE8-15">
          <mxGeometry relative="1" as="geometry" />
        </mxCell>
        <mxCell id="cJaIcAbAFUQ9YkOtkiE8-5" value="" style="edgeStyle=orthogonalEdgeStyle;rounded=0;orthogonalLoop=1;jettySize=auto;html=1;" edge="1" parent="1" source="cJaIcAbAFUQ9YkOtkiE8-11" target="cJaIcAbAFUQ9YkOtkiE8-12">
          <mxGeometry relative="1" as="geometry" />
        </mxCell>
        <mxCell id="cJaIcAbAFUQ9YkOtkiE8-6" style="edgeStyle=orthogonalEdgeStyle;rounded=0;orthogonalLoop=1;jettySize=auto;html=1;exitX=0;exitY=0;exitDx=0;exitDy=0;" edge="1" parent="1" source="cJaIcAbAFUQ9YkOtkiE8-11" target="cJaIcAbAFUQ9YkOtkiE8-16">
          <mxGeometry relative="1" as="geometry">
            <mxPoint x="440" y="280" as="targetPoint" />
            <Array as="points">
              <mxPoint x="557" y="340" />
              <mxPoint x="480" y="340" />
              <mxPoint x="480" y="280" />
            </Array>
          </mxGeometry>
        </mxCell>
        <mxCell id="cJaIcAbAFUQ9YkOtkiE8-7" style="edgeStyle=orthogonalEdgeStyle;rounded=0;orthogonalLoop=1;jettySize=auto;html=1;exitX=0;exitY=1;exitDx=0;exitDy=0;" edge="1" parent="1" source="cJaIcAbAFUQ9YkOtkiE8-11" target="cJaIcAbAFUQ9YkOtkiE8-17">
          <mxGeometry relative="1" as="geometry">
            <mxPoint x="400" y="530" as="targetPoint" />
            <Array as="points">
              <mxPoint x="490" y="442" />
              <mxPoint x="490" y="530" />
            </Array>
          </mxGeometry>
        </mxCell>
        <mxCell id="cJaIcAbAFUQ9YkOtkiE8-8" style="edgeStyle=orthogonalEdgeStyle;rounded=0;orthogonalLoop=1;jettySize=auto;html=1;exitX=1;exitY=0;exitDx=0;exitDy=0;" edge="1" parent="1" source="cJaIcAbAFUQ9YkOtkiE8-11" target="cJaIcAbAFUQ9YkOtkiE8-18">
          <mxGeometry relative="1" as="geometry">
            <mxPoint x="760" y="320" as="targetPoint" />
            <Array as="points">
              <mxPoint x="670" y="386" />
              <mxPoint x="670" y="320" />
            </Array>
          </mxGeometry>
        </mxCell>
        <mxCell id="cJaIcAbAFUQ9YkOtkiE8-9" style="edgeStyle=orthogonalEdgeStyle;rounded=0;orthogonalLoop=1;jettySize=auto;html=1;exitX=1;exitY=1;exitDx=0;exitDy=0;" edge="1" parent="1" source="cJaIcAbAFUQ9YkOtkiE8-11" target="cJaIcAbAFUQ9YkOtkiE8-19">
          <mxGeometry relative="1" as="geometry">
            <mxPoint x="760" y="520" as="targetPoint" />
            <Array as="points">
              <mxPoint x="670" y="442" />
              <mxPoint x="670" y="520" />
            </Array>
          </mxGeometry>
        </mxCell>
        <mxCell id="cJaIcAbAFUQ9YkOtkiE8-10" style="edgeStyle=orthogonalEdgeStyle;rounded=0;orthogonalLoop=1;jettySize=auto;html=1;exitX=1;exitY=0;exitDx=0;exitDy=0;entryX=0.5;entryY=1;entryDx=0;entryDy=0;" edge="1" parent="1" source="cJaIcAbAFUQ9YkOtkiE8-11" target="cJaIcAbAFUQ9YkOtkiE8-20">
          <mxGeometry relative="1" as="geometry">
            <mxPoint x="840" y="250" as="targetPoint" />
            <Array as="points">
              <mxPoint x="613" y="280" />
              <mxPoint x="780" y="280" />
            </Array>
          </mxGeometry>
        </mxCell>
        <mxCell id="cJaIcAbAFUQ9YkOtkiE8-11" value="Hotel Management System" style="ellipse;whiteSpace=wrap;html=1;aspect=fixed;" vertex="1" parent="1">
          <mxGeometry x="545" y="374" width="80" height="80" as="geometry" />
        </mxCell>
        <mxCell id="cJaIcAbAFUQ9YkOtkiE8-12" value="MANAGE RESERVATION" style="rounded=0;whiteSpace=wrap;html=1;" vertex="1" parent="1">
          <mxGeometry x="525.0047058823529" y="200" width="120" height="60" as="geometry" />
        </mxCell>
        <mxCell id="cJaIcAbAFUQ9YkOtkiE8-13" value="MANAGE BILLING" style="rounded=0;whiteSpace=wrap;html=1;" vertex="1" parent="1">
          <mxGeometry x="740" y="384.00470588235294" width="120" height="60" as="geometry" />
        </mxCell>
        <mxCell id="cJaIcAbAFUQ9YkOtkiE8-14" value="MANAGE STAFF" style="rounded=0;whiteSpace=wrap;html=1;" vertex="1" parent="1">
          <mxGeometry x="524.0047058823529" y="570" width="120" height="60" as="geometry" />
        </mxCell>
        <mxCell id="cJaIcAbAFUQ9YkOtkiE8-15" value="MANAGE ROOM" style="whiteSpace=wrap;html=1;" vertex="1" parent="1">
          <mxGeometry x="310" y="383" width="120" height="60" as="geometry" />
        </mxCell>
        <mxCell id="cJaIcAbAFUQ9YkOtkiE8-16" value="MANAGE CUSTOMERS" style="rounded=0;whiteSpace=wrap;html=1;" vertex="1" parent="1">
          <mxGeometry x="340" y="280" width="120" height="60" as="geometry" />
        </mxCell>
        <mxCell id="cJaIcAbAFUQ9YkOtkiE8-17" value="MANAGE HOTEL" style="rounded=0;whiteSpace=wrap;html=1;" vertex="1" parent="1">
          <mxGeometry x="340" y="500" width="120" height="60" as="geometry" />
        </mxCell>
        <mxCell id="cJaIcAbAFUQ9YkOtkiE8-18" value="SYSTEM USER MNAGEMENT" style="rounded=0;whiteSpace=wrap;html=1;" vertex="1" parent="1">
          <mxGeometry x="700" y="290" width="120" height="60" as="geometry" />
        </mxCell>
        <mxCell id="cJaIcAbAFUQ9YkOtkiE8-19" value="MANAGE IIINVENTORY" style="rounded=0;whiteSpace=wrap;html=1;" vertex="1" parent="1">
          <mxGeometry x="700" y="490" width="120" height="60" as="geometry" />
        </mxCell>
        <mxCell id="cJaIcAbAFUQ9YkOtkiE8-20" value="MANAGE REPORTS" style="rounded=0;whiteSpace=wrap;html=1;" vertex="1" parent="1">
          <mxGeometry x="720" y="190" width="120" height="60" as="geometry" />
        </mxCell>
      </root>
    </mxGraphModel>
  </diagram>
</mxfile>
